<svg width="116" height="125" viewBox="0 0 116 125" fill="none" xmlns="http://www.w3.org/2000/svg">
<path d="M28 6H88C90.2091 6 92 7.79086 92 10V70C92 72.2091 90.2091 74 88 74H28C25.7909 74 24 72.2091 24 70V10C24 7.79086 25.7909 6 28 6Z" stroke="#48BB78" stroke-width="12"/>
<path d="M10 30H70C72.2091 30 74 31.7909 74 34V94C74 96.2091 72.2091 98 70 98H10C7.79086 98 6 96.2091 6 94V34C6 31.7909 7.79086 30 10 30Z" stroke="#284ED9" stroke-width="12"/>
<path d="M46 51H106C108.209 51 110 52.7909 110 55V115C110 117.209 108.209 119 106 119H46C43.7909 119 42 117.209 42 115V55C42 52.7909 43.7909 51 46 51Z" stroke="#E2D55B" stroke-width="12"/>
</svg>
